<?xml version="1.0" standalone="no"?>
<!DOCTYPE svg PUBLIC "-//W3C//DTD SVG 20010904//EN"
 "http://www.w3.org/TR/2001/REC-SVG-20010904/DTD/svg10.dtd">
<svg version="1.0" xmlns="http://www.w3.org/2000/svg"
 width="538.000000pt" height="538.000000pt" viewBox="0 0 538.000000 538.000000"
 preserveAspectRatio="xMidYMid meet">
<metadata>
Created by potrace 1.14, written by Peter Selinger 2001-2017
</metadata>
<g transform="translate(0.000000,538.000000) scale(0.100000,-0.100000)"
fill="#000000" stroke="none">
<path d="M2647 5374 c-1 -1 -29 -5 -62 -9 -83 -9 -298 -53 -355 -71 -8 -3 -17
-6 -20 -6 -14 -3 -200 -68 -235 -83 -111 -47 -270 -128 -355 -180 -85 -53
-197 -130 -210 -146 -3 -3 -12 -10 -21 -15 -45 -25 -302 -269 -364 -345 -70
-86 -150 -196 -200 -273 -70 -109 -188 -337 -210 -406 -2 -6 -11 -30 -37 -96
-11 -29 -21 -58 -22 -65 -2 -8 -5 -21 -8 -29 -25 -74 -67 -244 -74 -304 -3
-22 -7 -46 -9 -53 -4 -13 -18 -143 -19 -183 l-1 -25 398 -2 c219 -1 396 1 393
5 -3 5 -1 27 5 50 5 23 12 59 15 80 8 53 43 193 54 217 5 11 18 45 28 75 26
76 84 200 94 200 4 0 8 6 8 12 0 20 67 125 139 218 82 106 276 300 301 300 4
0 10 4 12 8 10 26 368 236 368 216 0 -4 6 -2 13 4 25 20 240 85 327 98 19 3
49 8 65 11 17 2 37 6 45 7 13 3 15 56 16 400 l2 397 -39 -3 c-22 -1 -41 -3
-42 -4z"/>
<path d="M3100 4980 l1 -400 22 -1 c78 -2 222 -39 367 -92 233 -86 421 -208
605 -392 106 -106 137 -145 253 -321 30 -46 122 -246 147 -319 30 -92 62 -219
70 -285 12 -96 -40 -85 409 -87 l397 -2 -7 72 c-9 95 -12 122 -14 122 -1 0 -3
9 -4 20 -4 28 -18 107 -22 125 -2 8 -11 44 -19 80 -19 82 -19 81 -45 165 -54
173 -171 424 -260 560 -22 33 -43 67 -47 75 -3 8 -9 17 -12 20 -4 3 -31 39
-62 80 -80 107 -118 150 -250 280 -113 111 -278 250 -298 250 -5 0 -11 4 -13
9 -3 8 -95 70 -143 97 -11 6 -40 22 -65 36 -109 61 -140 77 -222 111 -86 37
-265 102 -310 112 -12 2 -70 16 -128 30 -58 13 -125 27 -150 30 -25 3 -58 8
-75 10 -16 3 -51 7 -78 10 l-47 4 0 -399z"/>
<path d="M4574 2709 c-2 -4 -6 -20 -8 -36 -17 -122 -60 -283 -103 -383 -75
-176 -167 -328 -278 -460 -53 -62 -192 -197 -239 -231 -25 -18 -46 -36 -46
-41 0 -4 -5 -8 -12 -8 -6 0 -26 -11 -44 -25 -18 -14 -35 -25 -38 -25 -3 0 -24
-13 -48 -29 -39 -26 -132 -72 -228 -114 -86 -37 -244 -81 -353 -98 l-77 -12 0
-398 1 -398 41 4 c215 23 495 88 643 150 17 7 55 23 85 35 126 51 408 208 418
232 2 4 8 8 13 8 9 0 108 70 135 96 6 5 31 26 54 45 80 65 202 184 273 268 40
47 79 92 87 101 17 19 10 8 117 169 45 68 103 163 127 211 42 80 114 240 120
265 2 6 8 24 15 40 7 17 28 82 46 145 52 180 81 336 89 470 l1 25 -393 0
c-217 0 -396 -3 -398 -6z"/>
<path d="M435 2698 c-2 -7 -3 -179 -2 -381 l2 -369 494 0 494 0 -696 -697
c-383 -383 -698 -698 -701 -701 -3 -3 118 -128 268 -278 l273 -272 684 685
c376 377 686 685 689 685 3 0 6 -208 6 -463 l-1 -462 375 0 375 0 0 1133 0
1132 -1128 0 c-893 0 -1128 -3 -1132 -12z"/>
</g>
</svg>
