<?xml version="1.0" encoding="UTF-8" standalone="no"?>
<!-- Created with Inkscape (http://www.inkscape.org/) -->

<svg
   version="1.1"
   id="svg18"
   width="468.66736"
   height="178.92041"
   viewBox="0 0 468.66736 178.92041"
   sodipodi:docname="مرشدك.ai"
   inkscape:export-filename="مرشدك.ai.svg"
   inkscape:export-xdpi="52.971947"
   inkscape:export-ydpi="52.971947"
   xmlns:inkscape="http://www.inkscape.org/namespaces/inkscape"
   xmlns:sodipodi="http://sodipodi.sourceforge.net/DTD/sodipodi-0.dtd"
   xmlns="http://www.w3.org/2000/svg"
   xmlns:svg="http://www.w3.org/2000/svg">
  <defs
     id="defs22">
    <clipPath
       clipPathUnits="userSpaceOnUse"
       id="clipPath146">
      <path
         d="M 0,566.929 H 425.197 V 0 H 0 Z"
         id="path144" />
    </clipPath>
  </defs>
  <sodipodi:namedview
     id="namedview20"
     pagecolor="#505050"
     bordercolor="#eeeeee"
     borderopacity="1"
     inkscape:showpageshadow="0"
     inkscape:pageopacity="0"
     inkscape:pagecheckerboard="0"
     inkscape:deskcolor="#505050"
     showgrid="false" />
  <g
     id="g136"
     inkscape:groupmode="layer"
     inkscape:label="Page 3"
     transform="matrix(1.3333333,0,0,-1.3333333,-49.611151,471.238)">
    <g
       id="g140">
      <g
         id="g142"
         clip-path="url(#clipPath146)">
        <g
           id="g148"
           transform="translate(53.2514,325.5626)">
          <path
             d="m 0,0 c 1.161,0.971 2.765,1.456 4.81,1.456 h 3.121 v -2.34 H 5.226 C 4.187,-0.884 3.458,-1.109 3.042,-1.56 2.626,-2.011 2.418,-2.652 2.418,-3.484 V -4.888 H 9.595 V -8.789 H -1.742 v 3.797 c 0,2.357 0.581,4.021 1.742,4.992 m -3.588,-26.703 c -1.266,0.156 -2.435,0.408 -3.511,0.754 -1.074,0.347 -2.053,0.789 -2.937,1.326 -0.885,0.538 -1.725,1.187 -2.523,1.95 -1.282,1.214 -2.184,2.782 -2.704,4.706 -0.519,1.925 -0.78,3.944 -0.78,6.058 v 9.829 h 7.28 v -8.944 c 0,-1.56 0.165,-2.887 0.494,-3.978 0.33,-1.093 0.893,-1.985 1.691,-2.679 0.901,-0.762 2.028,-1.282 3.38,-1.56 1.351,-0.277 2.808,-0.416 4.368,-0.416 h 14.56 v 34.894 h 7.281 V -26.937 H 0.649 c -1.559,0 -2.972,0.078 -4.237,0.234"
             style="fill:#ffffff;fill-opacity:1;fill-rule:nonzero;stroke:none"
             id="path150" />
        </g>
        <g
           id="g152"
           transform="translate(101.3247,305.9058)">
          <path
             d="m 0,0 v 7.956 c 0,1.04 -0.112,1.95 -0.338,2.731 -0.225,0.779 -0.581,1.464 -1.066,2.053 -0.45,0.59 -1.066,1.067 -1.846,1.43 -0.78,0.365 -1.639,0.547 -2.574,0.547 h -3.12 v 7.28 h 2.391 c 2.358,0 4.421,-0.304 6.189,-0.91 1.768,-0.607 3.311,-1.604 4.628,-2.99 1.109,-1.179 1.889,-2.679 2.34,-4.498 C 7.055,11.778 7.28,9.794 7.28,7.645 V 0 h 5.616 V -7.28 H -18.148 V 0 Z"
             style="fill:#ffffff;fill-opacity:1;fill-rule:nonzero;stroke:none"
             id="path154" />
        </g>
        <g
           id="g156"
           transform="translate(150.438,333.545)">
          <path
             d="m 0,0 c -0.779,0.606 -1.17,1.517 -1.17,2.73 0,1.075 0.373,1.941 1.118,2.6 C 0.693,5.989 1.621,6.318 2.73,6.318 3.875,6.318 4.819,5.989 5.564,5.33 6.31,4.671 6.683,3.805 6.683,2.73 6.683,1.517 6.293,0.606 5.513,0 4.732,-0.607 3.805,-0.91 2.73,-0.91 1.69,-0.91 0.78,-0.607 0,0 m -5.2,8.164 c -0.71,0.538 -1.066,1.326 -1.066,2.366 0,0.936 0.329,1.699 0.989,2.288 0.658,0.59 1.49,0.885 2.496,0.885 1.005,0 1.837,-0.295 2.496,-0.885 0.658,-0.589 0.987,-1.352 0.987,-2.288 0,-1.04 -0.347,-1.828 -1.04,-2.366 -0.693,-0.537 -1.508,-0.806 -2.443,-0.806 -0.903,0 -1.708,0.269 -2.419,0.806 M -11.024,0 c -0.78,0.606 -1.17,1.517 -1.17,2.73 0,1.075 0.373,1.941 1.118,2.6 0.745,0.659 1.673,0.988 2.782,0.988 1.109,0 2.046,-0.329 2.808,-0.988 0.763,-0.659 1.144,-1.525 1.144,-2.6 0,-1.213 -0.398,-2.124 -1.196,-2.73 -0.797,-0.607 -1.716,-0.91 -2.756,-0.91 -1.04,0 -1.95,0.303 -2.73,0.91 m -14.847,-27.639 v 19.396 h 7.281 v -19.396 h 5.304 c 0.763,0 1.552,0.095 2.366,0.286 0.815,0.19 1.56,0.537 2.236,1.04 0.676,0.502 1.222,1.17 1.638,2.002 0.416,0.832 0.624,1.89 0.624,3.172 v 12.896 h 7.28 v -12.584 c 0,-2.496 0.598,-4.342 1.794,-5.538 1.197,-1.196 2.783,-1.794 4.758,-1.794 2.08,0 3.641,0.589 4.681,1.768 1.04,1.179 1.559,2.773 1.559,4.784 v 19.605 h 7.229 v -18.669 c 0,-5.027 -1.109,-8.745 -3.328,-11.154 -2.219,-2.41 -5.599,-3.614 -10.141,-3.614 -1.005,0 -1.993,0.078 -2.964,0.233 -0.97,0.157 -1.906,0.425 -2.807,0.807 -0.902,0.381 -1.743,0.892 -2.523,1.534 -0.78,0.641 -1.465,1.447 -2.054,2.418 -1.317,-1.387 -2.877,-2.479 -4.68,-3.276 -1.803,-0.798 -3.693,-1.196 -5.668,-1.196 h -23.921 v 7.28 z"
             style="fill:#ffffff;fill-opacity:1;fill-rule:nonzero;stroke:none"
             id="path158" />
        </g>
        <g
           id="g160"
           transform="translate(177.7114,287.315)">
          <path
             d="m 0,0 c -0.658,0.087 -1.213,0.199 -1.664,0.338 l -0.52,7.28 c 0.694,-0.173 1.3,-0.294 1.82,-0.364 0.52,-0.069 1.057,-0.104 1.612,-0.104 1.456,0 2.47,0.399 3.042,1.197 0.572,0.797 0.858,2.097 0.858,3.9 v 28.341 h 7.281 V 18.591 h 5.616 v -7.28 H 12.377 C 12.168,7.289 11.25,4.377 9.62,2.574 7.991,0.771 5.46,-0.13 2.028,-0.13 1.335,-0.13 0.658,-0.086 0,0"
             style="fill:#ffffff;fill-opacity:1;fill-rule:nonzero;stroke:none"
             id="path162" />
        </g>
        <g
           id="g164"
           transform="translate(218.271,301.5894)">
          <path
             d="m 0,0 c 1.04,0.416 1.95,0.997 2.73,1.742 0.781,0.746 1.387,1.63 1.821,2.653 0.432,1.022 0.649,2.14 0.649,3.354 0,1.213 -0.208,2.34 -0.624,3.38 -0.416,1.04 -1.005,1.941 -1.767,2.704 -0.763,0.763 -1.664,1.36 -2.705,1.794 -1.04,0.433 -2.184,0.65 -3.432,0.65 -1.213,0 -2.322,-0.225 -3.328,-0.676 -1.005,-0.451 -1.872,-1.058 -2.6,-1.82 -0.728,-0.763 -1.3,-1.664 -1.716,-2.704 -0.416,-1.04 -0.625,-2.15 -0.625,-3.328 0,-1.179 0.209,-2.28 0.625,-3.303 0.416,-1.022 0.996,-1.906 1.742,-2.652 0.746,-0.745 1.621,-1.335 2.626,-1.768 1.005,-0.433 2.097,-0.65 3.276,-0.65 1.179,0 2.288,0.208 3.328,0.624 m -18.513,4.316 c -0.138,0.52 -0.233,1.058 -0.286,1.613 -0.052,0.554 -0.077,1.126 -0.077,1.716 0,2.218 0.407,4.29 1.222,6.214 0.814,1.924 1.924,3.605 3.328,5.044 1.404,1.439 3.051,2.574 4.94,3.406 1.889,0.832 3.908,1.248 6.058,1.248 2.184,0 4.238,-0.407 6.162,-1.222 1.925,-0.814 3.605,-1.933 5.045,-3.354 1.438,-1.421 2.565,-3.103 3.38,-5.044 C 12.073,11.995 12.48,9.898 12.48,7.645 12.48,5.426 12.056,3.372 11.207,1.482 10.357,-0.407 9.204,-2.045 7.749,-3.432 6.292,-4.818 4.611,-5.911 2.704,-6.708 0.798,-7.505 -1.213,-7.904 -3.328,-7.904 c -2.219,0 -4.299,0.442 -6.24,1.326 -1.942,0.884 -3.64,2.089 -5.096,3.614 h -8.893 v 7.28 z"
             style="fill:#ffffff;fill-opacity:1;fill-rule:nonzero;stroke:none"
             id="path166" />
        </g>
        <g
           id="g168"
           transform="translate(43.3931,272.6334)">
          <path
             d="M 0,0 V -20.865 H -5.953 V 7.858 h 9.349 l 5.849,-22.1 5.918,22.1 h 9.28 V -20.865 H 18.49 V -0.034 L 12.747,-20.865 H 5.778 Z"
             style="fill:#ffffff;fill-opacity:1;fill-rule:nonzero;stroke:none"
             id="path170" />
        </g>
        <g
           id="g172"
           transform="translate(90.98,271.981)">
          <path
             d="m 0,0 v -19.08 c -0.91,-0.298 -1.698,-0.538 -2.363,-0.721 -0.666,-0.183 -1.337,-0.338 -2.014,-0.464 -0.677,-0.125 -1.384,-0.216 -2.119,-0.274 -0.735,-0.057 -1.534,-0.086 -2.399,-0.086 -1.307,0 -2.527,0.138 -3.659,0.412 -1.133,0.275 -2.131,0.744 -2.994,1.407 -0.864,0.663 -1.535,1.528 -2.014,2.591 -0.478,1.064 -0.717,2.385 -0.717,3.964 V 0 h 5.812 v -10.879 c 0,-1.646 0.263,-2.751 0.788,-3.311 0.526,-0.561 1.408,-0.841 2.645,-0.841 0.513,0 1.061,0.035 1.645,0.103 0.584,0.069 1.109,0.16 1.577,0.275 V 0 Z"
             style="fill:#ffffff;fill-opacity:1;fill-rule:nonzero;stroke:none"
             id="path174" />
        </g>
        <g
           id="g176"
           transform="translate(104.8462,266.7994)">
          <path
             d="m 0,0 c -0.187,0 -0.455,-0.006 -0.806,-0.018 -0.349,-0.011 -0.717,-0.034 -1.102,-0.068 -0.386,-0.034 -0.923,-0.098 -1.612,-0.188 -0.688,-0.092 -0.613,0 0.228,0.274 v -15.031 h -5.813 v 19.63 c 0.864,0.16 1.646,0.291 2.346,0.394 0.7,0.103 1.395,0.189 2.084,0.257 0.689,0.069 1.36,0.126 2.014,0.172 0.653,0.046 1.237,0.068 1.751,0.068 H 3.257 V 0 Z"
             style="fill:#ffffff;fill-opacity:1;fill-rule:nonzero;stroke:none"
             id="path178" />
        </g>
        <g
           id="g180"
           transform="translate(121.3911,257.2252)">
          <path
             d="m 0,0 c 0.596,0.183 0.893,0.445 0.893,0.789 0,0.343 -0.181,0.623 -0.542,0.841 -0.363,0.217 -1.139,0.44 -2.33,0.669 l -1.576,0.274 c -2.31,0.435 -4.143,1.167 -5.498,2.197 -1.353,1.029 -2.03,2.448 -2.03,4.255 0,1.967 0.781,3.529 2.346,4.684 1.564,1.155 3.676,1.733 6.339,1.733 1.586,0 3.133,-0.154 4.639,-0.463 1.506,-0.309 2.936,-0.83 4.29,-1.561 L 4.43,8.133 C 3.706,8.499 3.07,8.773 2.521,8.956 1.973,9.14 1.406,9.3 0.823,9.437 0.239,9.574 -0.356,9.677 -0.963,9.745 -1.57,9.814 -2.142,9.849 -2.679,9.849 c -1.751,0 -2.627,-0.275 -2.627,-0.824 0,-0.275 0.188,-0.526 0.561,-0.755 0.374,-0.229 1.143,-0.446 2.311,-0.652 L -0.893,7.344 C 1.885,6.817 3.893,6.017 5.13,4.941 6.367,3.866 6.986,2.391 6.986,0.515 6.986,-0.4 6.782,-1.253 6.373,-2.042 5.965,-2.832 5.363,-3.513 4.57,-4.084 3.776,-4.656 2.79,-5.097 1.611,-5.405 c -1.179,-0.309 -2.539,-0.464 -4.08,-0.464 -0.817,0 -1.635,0.046 -2.451,0.138 -0.817,0.091 -1.623,0.222 -2.417,0.394 -0.793,0.172 -1.546,0.384 -2.258,0.635 -0.713,0.252 -1.466,0.606 -2.259,1.064 l 2.207,5.559 c 1.167,-0.755 2.357,-1.31 3.571,-1.664 1.215,-0.355 2.464,-0.532 3.747,-0.532 0.958,0 1.733,0.091 2.329,0.275"
             style="fill:#ffffff;fill-opacity:1;fill-rule:nonzero;stroke:none"
             id="path182" />
        </g>
        <g
           id="g184"
           transform="translate(139.4936,272.5474)">
          <path
             d="m 0,0 c 0.688,0.08 1.312,0.12 1.873,0.12 1.284,0 2.504,-0.12 3.659,-0.36 1.156,-0.24 2.172,-0.681 3.047,-1.322 0.876,-0.64 1.57,-1.503 2.084,-2.59 0.514,-1.087 0.771,-2.454 0.771,-4.102 V -20.779 H 5.62 v 11.153 c 0,1.624 -0.327,2.723 -0.98,3.294 -0.654,0.572 -1.646,0.858 -2.977,0.858 -0.514,0 -1.08,-0.034 -1.698,-0.103 -0.619,-0.069 -1.151,-0.137 -1.594,-0.205 V -20.779 H -7.442 V 7.944 h 5.813 V -0.224 C -1.231,-0.154 -0.689,-0.08 0,0"
             style="fill:#ffffff;fill-opacity:1;fill-rule:nonzero;stroke:none"
             id="path186" />
        </g>
        <path
           d="m 161.115,251.768 h -5.813 v 20.213 h 5.813 z m -5.218,23.113 c -0.677,0.515 -1.016,1.264 -1.016,2.247 0,0.893 0.322,1.613 0.963,2.163 0.643,0.548 1.431,0.823 2.364,0.823 0.934,0 1.716,-0.275 2.346,-0.823 0.631,-0.55 0.946,-1.27 0.946,-2.163 0,-0.915 -0.309,-1.646 -0.928,-2.196 -0.618,-0.549 -1.406,-0.823 -2.364,-0.823 -0.864,0 -1.634,0.257 -2.311,0.772"
           style="fill:#ffffff;fill-opacity:1;fill-rule:nonzero;stroke:none"
           id="path188" />
        <g
           id="g190"
           transform="translate(171.7778,258.1509)">
          <path
             d="m 0,0 c 1.038,-0.801 2.48,-1.201 4.324,-1.201 0.864,0 1.728,0.092 2.592,0.275 v 9.54 C 6.565,8.705 6.151,8.779 5.673,8.837 5.194,8.895 4.745,8.923 4.324,8.923 2.504,8.923 1.067,8.505 0.018,7.67 -1.033,6.835 -1.559,5.548 -1.559,3.81 -1.559,2.07 -1.039,0.801 0,0 M 12.729,22.341 V -5.696 c -2.708,-0.733 -5.498,-1.099 -8.37,-1.099 -1.867,0 -3.543,0.27 -5.025,0.807 -1.482,0.538 -2.743,1.281 -3.782,2.23 -1.038,0.95 -1.826,2.071 -2.364,3.363 -0.537,1.293 -0.805,2.695 -0.805,4.205 0,1.509 0.274,2.911 0.823,4.204 0.549,1.292 1.337,2.424 2.363,3.397 1.028,0.972 2.253,1.733 3.678,2.281 1.424,0.55 3,0.825 4.728,0.825 0.466,0 0.986,-0.024 1.557,-0.069 0.572,-0.046 1.033,-0.092 1.384,-0.137 v 8.03 z"
             style="fill:#ffffff;fill-opacity:1;fill-rule:nonzero;stroke:none"
             id="path192" />
        </g>
        <g
           id="g194"
           transform="translate(206.9868,271.981)">
          <path
             d="m 0,0 v -19.08 c -0.91,-0.298 -1.698,-0.538 -2.363,-0.721 -0.666,-0.183 -1.337,-0.338 -2.014,-0.464 -0.677,-0.125 -1.384,-0.216 -2.119,-0.274 -0.735,-0.057 -1.534,-0.086 -2.399,-0.086 -1.307,0 -2.527,0.138 -3.659,0.412 -1.133,0.275 -2.131,0.744 -2.994,1.407 -0.864,0.663 -1.535,1.528 -2.014,2.591 -0.478,1.064 -0.717,2.385 -0.717,3.964 V 0 h 5.812 v -10.879 c 0,-1.646 0.263,-2.751 0.788,-3.311 0.526,-0.561 1.408,-0.841 2.645,-0.841 0.513,0 1.061,0.035 1.645,0.103 0.584,0.069 1.11,0.16 1.577,0.275 V 0 Z"
             style="fill:#ffffff;fill-opacity:1;fill-rule:nonzero;stroke:none"
             id="path196" />
        </g>
        <g
           id="g198"
           transform="translate(211.7466,280.4918)">
          <path
             d="m 0,0 h 5.813 v -17.124 l 6.654,8.613 h 6.934 l -7.739,-10.02 8.23,-10.193 h -7.039 l -7.04,8.717 v -8.717 H 0 Z"
             style="fill:#ffffff;fill-opacity:1;fill-rule:nonzero;stroke:none"
             id="path200" />
        </g>
        <g
           id="g202"
           transform="translate(265.4832,267.8412)">
          <path
             d="M 0,0 H 24.715 C 12.341,-12.363 0.738,-23.955 -10.297,-34.981 c 4.327,-4.314 8.653,-8.629 13.661,-13.622 11.168,11.184 22.723,22.754 34.401,34.448 v -23.437 h 18.707 v 56.597 c -19.028,0 -37.804,0 -56.472,0 z"
             style="fill:#f3b91d;fill-opacity:1;fill-rule:nonzero;stroke:none"
             id="path204" />
        </g>
        <g
           id="g206"
           transform="translate(322.7613,353.4285)">
          <path
             d="m 0,0 c -30.601,-2.186 -55.015,-26.694 -57.048,-57.339 h 19.81 c 1.94,19.7 17.581,35.43 37.238,37.516 z"
             style="fill:#1cafbf;fill-opacity:1;fill-rule:nonzero;stroke:none"
             id="path208" />
        </g>
        <g
           id="g210"
           transform="translate(332.0739,353.3984)">
          <path
             d="m 0,0 v -19.842 c 19.462,-2.262 34.9,-17.905 36.826,-37.466 H 56.635 C 54.612,-26.801 30.408,-2.376 0,0"
             style="fill:#1cafbf;fill-opacity:1;fill-rule:nonzero;stroke:none"
             id="path212" />
        </g>
        <g
           id="g214"
           transform="translate(368.7992,286.9713)">
          <path
             d="M 0,0 C -2.283,-19.164 -17.547,-34.391 -36.725,-36.62 V -56.463 C -6.599,-54.109 17.435,-30.112 19.846,0 Z"
             style="fill:#1cafbf;fill-opacity:1;fill-rule:nonzero;stroke:none"
             id="path216" />
        </g>
      </g>
    </g>
  </g>
</svg>
