<svg width="20" height="19" viewBox="0 0 20 19" fill="none" xmlns="http://www.w3.org/2000/svg">
<path d="M16.219 1.943C16.872 2.455 17.322 3.282 17.506 4.148C17.5283 4.15505 17.55 4.16374 17.571 4.174L19.616 5.12C19.7303 5.17249 19.8272 5.25659 19.8952 5.36238C19.9633 5.46817 19.9996 5.59122 20 5.717V18.084C19.9993 18.1867 19.9747 18.2879 19.9284 18.3796C19.882 18.4712 19.815 18.5509 19.7326 18.6123C19.6503 18.6737 19.5548 18.7152 19.4537 18.7336C19.3526 18.7519 19.2487 18.7466 19.15 18.718L13.481 17.118L6.741 18.976C6.61939 19.0094 6.49086 19.008 6.37 18.972L0.474 17.217C0.337721 17.177 0.21799 17.0941 0.132595 16.9806C0.047201 16.8671 0.00069966 16.729 0 16.587L0 3.998C0 3.558 0.428 3.242 0.855 3.366L6.557 5.027L9.455 4.14C9.49488 4.12823 9.5357 4.11986 9.577 4.115C9.689 3.459 10.002 2.829 10.527 2.215C11.15 1.485 12.243 1.057 13.308 1.006C14.413 0.953001 15.257 1.189 16.218 1.942L16.219 1.943ZM1.333 4.881V16.096L6.203 17.545V6.298L1.333 4.881ZM9.542 5.495L7.536 6.108V17.387L12.601 15.993V12.698C12.601 12.334 12.9 12.039 13.268 12.039C13.636 12.039 13.934 12.334 13.934 12.699V15.876L18.667 17.211V6.136L17.547 5.616C17.528 5.726 17.504 5.834 17.474 5.939C17.2565 6.70576 16.8917 7.42279 16.4 8.05L13.923 11.143C13.8578 11.2243 13.7745 11.2893 13.6797 11.3328C13.585 11.3763 13.4814 11.397 13.3772 11.3934C13.273 11.3898 13.1711 11.362 13.0796 11.3121C12.9881 11.2622 12.9095 11.1916 12.85 11.106L10.535 7.753C10.153 7.219 9.885 6.743 9.734 6.317C9.63922 6.05112 9.57481 5.77536 9.542 5.495ZM13.372 2.324C12.646 2.359 11.9 2.651 11.545 3.066C11.118 3.566 10.908 4.034 10.866 4.508C10.816 5.079 10.85 5.482 10.992 5.881C11.097 6.176 11.306 6.55 11.629 7.001L13.44 9.623L15.35 7.238C15.7353 6.74555 16.021 6.18273 16.191 5.581C16.431 4.741 16.069 3.507 15.391 2.977C14.696 2.432 14.171 2.285 13.373 2.324H13.372ZM13.51 3.021C14.614 3.021 15.51 3.906 15.51 4.998C15.5086 5.25916 15.4557 5.51747 15.3544 5.75818C15.2531 5.99889 15.1053 6.21728 14.9196 6.40087C14.7339 6.58447 14.5138 6.72967 14.2719 6.82818C14.0301 6.92669 13.7712 6.97658 13.51 6.975C12.406 6.975 11.51 6.09 11.51 4.998C11.51 3.906 12.406 3.021 13.51 3.021ZM13.51 4.339C13.4229 4.33847 13.3366 4.3551 13.256 4.38794C13.1753 4.42077 13.102 4.46916 13.04 4.53036C12.9781 4.59155 12.9288 4.66435 12.895 4.74459C12.8612 4.82482 12.8435 4.91093 12.843 4.998C12.843 5.362 13.142 5.657 13.51 5.657C13.5971 5.6574 13.6834 5.64064 13.7639 5.60768C13.8445 5.57473 13.9178 5.52622 13.9797 5.46494C14.0415 5.40365 14.0907 5.33078 14.1244 5.25049C14.1581 5.1702 14.1756 5.08407 14.176 4.997C14.1747 4.82151 14.1038 4.6537 13.979 4.53036C13.8541 4.40702 13.6855 4.3382 13.51 4.339Z" fill="#F8F8F8"/>
</svg>
