<svg width="100" height="95" viewBox="0 0 100 95" fill="none" xmlns="http://www.w3.org/2000/svg">
<path fill-rule="evenodd" clip-rule="evenodd" d="M2.586 5.002C2.2507 4.99046 1.9165 5.04653 1.60333 5.16686C1.29015 5.28719 1.0044 5.46933 0.763092 5.70242C0.521787 5.93552 0.329868 6.2148 0.198768 6.52362C0.0676683 6.83245 6.98324e-05 7.1645 0 7.5V77.79C7.99487e-05 78.2665 0.136324 78.733 0.392685 79.1347C0.649047 79.5363 1.01485 79.8563 1.447 80.057L33.113 94.767C33.4502 94.9238 33.8181 95.0034 34.19 95C34.5466 94.9972 34.8985 94.9181 35.222 94.768L65.835 80.547L96.448 94.767C96.8289 94.9437 97.2481 95.0216 97.667 94.9935C98.086 94.9655 98.4911 94.8324 98.845 94.6065C99.1989 94.3806 99.4902 94.0692 99.6921 93.7011C99.894 93.3329 99.9999 92.9199 100 92.5V26.967C98.5671 29.2888 96.891 31.4513 95 33.418V88.582L67.322 75.725L67.122 40.584C66.0831 39.7194 65.0767 38.8165 64.105 37.877L64.322 75.734L35.646 89.057L35.277 24.451L50.902 17.191C50.682 15.3113 50.7705 13.4082 51.164 11.557L34.166 19.453L3.553 5.233C3.24938 5.09204 2.92055 5.01348 2.586 5.002ZM5 11.418L32.275 24.088L32.646 89.038L5 76.192V11.418Z" fill="#F8F8F8"/>
<path d="M69.828 0C72.52 0 75.084 1.501 77.388 2.857C79.695 1.501 82.259 0 84.95 0C93.235 0 100 6.765 100 15.05V15.084C99.898 22.091 94.254 28.584 88.99 33.706C83.726 38.826 78.502 42.468 78.502 42.468C78.1203 42.7341 77.6656 42.8754 77.2003 42.8724C76.735 42.8693 76.2821 42.7221 75.904 42.451C75.904 42.451 71.012 38.952 65.964 33.906C60.915 28.859 55.472 22.333 54.79 15.266C54.783 15.1945 54.7793 15.1228 54.779 15.051C54.778 6.765 61.543 0 69.828 0Z" fill="#F8F8F8"/>
</svg>
