<svg width="2048" height="2048" viewBox="0 0 2048 2048" fill="none" xmlns="http://www.w3.org/2000/svg">
<g clip-path="url(#clip0_2_7)">
<path d="M868 1461C911.333 1483 950.333 1510 985 1542C1019.67 1574 1049.67 1610 1075 1650C1100.33 1690 1119.33 1732.67 1132 1778C1144.67 1823.33 1151.33 1870.67 1152 1920H1024C1024 1867.33 1014 1817.67 994 1771C974 1724.33 946.667 1683.67 912 1649C877.333 1614.33 836.333 1586.67 789 1566C741.667 1545.33 692 1535.33 640 1536C586.667 1536 537 1546 491 1566C445 1586 404.333 1613.33 369 1648C333.667 1682.67 306 1723.67 286 1771C266 1818.33 256 1868 256 1920H128C128 1871.33 134.667 1824.33 148 1779C161.333 1733.67 180.333 1691 205 1651C229.667 1611 259.333 1575 294 1543C328.667 1511 368 1483.67 412 1461C362.667 1424.33 324.333 1379 297 1325C269.667 1271 256 1213.33 256 1152C256 1099.33 266 1049.67 286 1003C306 956.333 333.333 915.667 368 881C402.667 846.333 443.333 818.667 490 798C536.667 777.333 586.667 767.333 640 768C701.333 768 759 781.667 813 809C867 836.333 912.333 874.667 949 924C974.333 874 1006.67 829.333 1046 790C1085.33 750.667 1130 718.333 1180 693C1130.67 656.333 1092.33 611 1065 557C1037.67 503 1024 445.333 1024 384C1024 331.333 1034 281.667 1054 235C1074 188.333 1101.33 147.667 1136 113C1170.67 78.3333 1211.33 50.6667 1258 30C1304.67 9.33333 1354.67 -0.666667 1408 0C1460.67 0 1510.33 10 1557 30C1603.67 50 1644.33 77.3333 1679 112C1713.67 146.667 1741.33 187.667 1762 235C1782.67 282.333 1792.67 332 1792 384C1792 445.333 1778.33 503 1751 557C1723.67 611 1685.33 656.333 1636 693C1679.33 715 1718.33 742 1753 774C1787.67 806 1817.67 842 1843 882C1868.33 922 1887.33 964.667 1900 1010C1912.67 1055.33 1919.33 1102.67 1920 1152H1792C1792 1099.33 1782 1049.67 1762 1003C1742 956.333 1714.67 915.667 1680 881C1645.33 846.333 1604.33 818.667 1557 798C1509.67 777.333 1460 767.333 1408 768C1354.67 768 1305 778 1259 798C1213 818 1172.33 845.333 1137 880C1101.67 914.667 1074 955.667 1054 1003C1034 1050.33 1024 1100 1024 1152C1024 1213.33 1010.33 1271 983 1325C955.667 1379 917.333 1424.33 868 1461ZM1152 384C1152 419.333 1158.67 452.333 1172 483C1185.33 513.667 1203.67 541 1227 565C1250.33 589 1277.33 607.333 1308 620C1338.67 632.667 1372 639.333 1408 640C1443.33 640 1476.33 633.333 1507 620C1537.67 606.667 1565 588.333 1589 565C1613 541.667 1631.33 514.667 1644 484C1656.67 453.333 1663.33 420 1664 384C1664 348.667 1657.33 315.667 1644 285C1630.67 254.333 1612.33 227 1589 203C1565.67 179 1538.67 160.667 1508 148C1477.33 135.333 1444 128.667 1408 128C1372.67 128 1339.67 134.667 1309 148C1278.33 161.333 1251 179.667 1227 203C1203 226.333 1184.67 253.333 1172 284C1159.33 314.667 1152.67 348 1152 384ZM384 1152C384 1187.33 390.667 1220.33 404 1251C417.333 1281.67 435.667 1309 459 1333C482.333 1357 509.333 1375.33 540 1388C570.667 1400.67 604 1407.33 640 1408C675.333 1408 708.333 1401.33 739 1388C769.667 1374.67 797 1356.33 821 1333C845 1309.67 863.333 1282.67 876 1252C888.667 1221.33 895.333 1188 896 1152C896 1116.67 889.333 1083.67 876 1053C862.667 1022.33 844.333 995 821 971C797.667 947 770.667 928.667 740 916C709.333 903.333 676 896.667 640 896C604.667 896 571.667 902.667 541 916C510.333 929.333 483 947.667 459 971C435 994.333 416.667 1021.33 404 1052C391.333 1082.67 384.667 1116 384 1152ZM1888 2048L1600 1823L1312 2048L1428 1688L1152 1472H1497L1600 1152L1703 1472H2048L1772 1688L1888 2048Z" fill="#F8F8F8"/>
</g>
<defs>
<clipPath id="clip0_2_7">
<rect width="2048" height="2048" fill="white"/>
</clipPath>
</defs>
</svg>
